# xmcd
#
# Track frame offsets: 
#        150
#        14323
#        25519
#        40993
#        52025
#        61261
#        77313
#        91540
#        101348
#        111274
#        126159
#        139748
#        152361
#
# Disc length: 2193 seconds
#
# Revision: 0
# Processed by: cddbd v1.5.2PL0 Copyright (c) Steve Scherf et al.
# Submitted via: ExactAudioCopy v0.95b2
#
DISCID=8f088f0d
DTITLE=The Dixie Hummingbirds and The Angelics - Up in Heaven: The Very 
DTITLE=Best of The Dixie Hummingbirds and The Angelics
DYEAR=1900
DGENRE=Gospel
TTITLE0=The Lord Will Always Fix a Way
TTITLE1=Trust in Jesus
TTITLE2=When the Dark Clouds Roll Away
TTITLE3=Any Time, Anywhere
TTITLE4=When My Troubles Will Be Over
TTITLE5=Oh Lord, What Then
TTITLE6=Turn the Light From Heabven On My Soul
TTITLE7=Jesus All the Way
TTITLE8=I Wanna Cross Over to See My Lord
TTITLE9=Up in Heaven
TTITLE10=When I Get Home
TTITLE11=Gonna Move On Up
TTITLE12=Lok Down Upon Me Lord
EXTD=
EXTT0=
EXTT1=
EXTT2=
EXTT3=
EXTT4=
EXTT5=
EXTT6=
EXTT7=
EXTT8=
EXTT9=
EXTT10=
EXTT11=
EXTT12=
PLAYORDER=
